<?xml version="1.0" standalone="no"?><!DOCTYPE svg PUBLIC "-//W3C//DTD SVG 1.1//EN" "http://www.w3.org/Graphics/SVG/1.1/DTD/svg11.dtd"><svg t="1651176861294" class="icon" viewBox="0 0 1038 1024" version="1.1" xmlns="http://www.w3.org/2000/svg" p-id="50848" xmlns:xlink="http://www.w3.org/1999/xlink" width="202.734375" height="200"><defs><style type="text/css">@font-face { font-family: feedback-iconfont; src: url("//at.alicdn.com/t/font_1031158_u69w8yhxdu.woff2?t=1630033759944") format("woff2"), url("//at.alicdn.com/t/font_1031158_u69w8yhxdu.woff?t=1630033759944") format("woff"), url("//at.alicdn.com/t/font_1031158_u69w8yhxdu.ttf?t=1630033759944") format("truetype"); }
</style></defs><path d="M577.912082 510.824281c102.884651-136.014075 244.693194-276.698195 230.978524-350.37659-190.716814-67.420204-381.429525-67.420204-572.14634 0-13.488965 73.456793 132.136048 213.82903 235.110981 349.547636-102.884651 136.014075-248.801029 276.702299-235.090462 350.380693 190.716814 67.420204 381.433629 67.420204 572.14634 0 13.493069-73.452689-128.024109-213.82903-230.999043-349.551739z" fill="#87CDDE" p-id="50849"></path><path d="M522.840007 941.716081c-98.415687 0-198.115842-17.605008-296.330447-52.322576a30.777986 30.777986 0 0 1-20.001587-23.387165c-12.602559-67.732087 59.869338-154.497281 151.624669-264.350068 25.114836-30.063936 50.935515-60.981449 74.876684-91.632219-23.859095-30.461998-49.568972-61.190739-74.568904-91.070008-91.837406-109.758401-164.379066-196.449727-151.961175-264.062806a30.777986 30.777986 0 0 1 20.013898-23.461032c98.214604-34.717568 197.914759-52.322576 296.330447-52.322576 98.411583 0 198.111739 17.605008 296.330446 52.322576a30.777986 30.777986 0 0 1 19.997483 23.387165c12.791331 68.708775-60.41103 157.628428-153.085597 270.201988-23.173771 28.147494-46.995932 57.087008-69.332542 85.780299 22.242224 28.496311 45.93717 57.230639 68.991932 85.18936 92.77716 112.499693 166.057492 201.353686 153.463141 269.947558a30.786193 30.786193 0 0 1-20.013898 23.461032c-98.214604 34.713464-197.914759 52.318472-296.33455 52.318472z m-254.866345-103.237571c84.783091 27.667357 170.423863 41.6816 254.866345 41.6816 84.471208 0 170.128394-14.02245 254.932003-41.702119-10.538382-46.897443-81.323646-132.726986-139.535076-203.307063-28.467585-34.520589-57.899547-70.210741-84.844647-105.724432a30.777986 30.777986 0 0 1-0.028726-37.1716c27.027175-35.73119 56.586353-71.63884 85.172946-106.360511 58.158082-70.645737 128.889997-156.565562 139.280645-203.504042-84.828232-27.696083-170.514145-41.726741-255.001768-41.726741-84.426067 0-170.038112 14.010139-254.800684 41.661082 10.846162 45.608871 80.400306 128.734055 137.626841 197.126843 30.560488 36.52321 62.15922 74.28985 90.729398 111.941586a30.777986 30.777986 0 0 1 0.028726 37.171599c-28.639942 37.86513-60.357682 75.832853-91.028971 112.557146-57.185497 68.470759-126.706812 151.698536-137.397032 197.356652z" fill="#6E6E96" p-id="50850"></path><path d="M863.19118 101.001038c0 32.694428-26.748121 59.446653-59.44255 59.446653H250.918555c-32.694428 0-59.446653-26.752225-59.446654-59.446653v-0.217498c0-32.694428 26.752225-59.446653 59.446654-59.446653h552.825972c32.698532 0 59.44255 26.752225 59.442549 59.446653v0.217498zM863.19118 923.21646c0 32.694428-26.748121 59.44255-59.44255 59.44255H250.918555c-32.694428 0-59.446653-26.752225-59.446654-59.44255v-0.217498c0-32.698532 26.752225-59.446653 59.446654-59.446653h552.825972c32.698532 0 59.44255 26.752225 59.442549 59.446653v0.217498z" fill="#9B9BBF" p-id="50851"></path><path d="M659.531197 776.688625c-37.253674-91.870236-94.816715-198.735506-153.69295-172.32389-82.891271 37.188014-129.36603 109.118219-155.182604 172.32389h308.875554zM385.541464 247.943349c37.00745 83.272918 88.870408 166.545836 141.788025 142.998626 70.752434-31.492035 114.986555-88.098906 142.477451-142.998626h-284.265476z" fill="#9BF2FF" p-id="50852"></path><path d="M385.541464 247.943349c18.618629 41.899098 44.714258 83.798196 71.339267 71.950723 35.59987-15.844507 57.854406-44.324403 71.688085-71.950723H385.541464z" fill="#FFFFFF" p-id="50853"></path><path d="M318.108949 923.109763a159.573597 59.553351 0 1 0 319.147194 0 159.573597 59.553351 0 1 0-319.147194 0Z" fill="#FFFFFF" opacity=".3" p-id="50854"></path><path d="M297.483595 100.894341a159.573597 59.553351 0 1 0 319.147193 0 159.573597 59.553351 0 1 0-319.147193 0Z" fill="#FFFFFF" opacity=".3" p-id="50855"></path><path d="M375.897695 101.678154a53.007899 50.890373 90 1 0 101.780747 0 53.007899 50.890373 90 1 0-101.780747 0Z" fill="#FFFFFF" opacity=".5" p-id="50856"></path><path d="M803.744527 191.225677H250.918555c-49.749536 0-90.224639-40.475103-90.22464-90.224639 0-49.967034 40.475103-90.442137 90.22464-90.442137h552.825972c49.749536 0 90.220535 40.475103 90.220535 90.224639 0.004104 49.967034-40.470999 90.442137-90.220535 90.442137zM250.918555 72.114872a28.701498 28.701498 0 0 0-28.668668 28.668668c0 16.025071 12.861094 28.886166 28.668668 28.886166h552.825972c15.807573 0 28.664564-12.861094 28.664564-28.668668 0-16.025071-12.861094-28.886166-28.664564-28.886166H250.918555zM803.744527 1013.441099H250.918555c-49.749536 0-90.224639-40.470999-90.22464-90.220535 0-49.967034 40.475103-90.442137 90.22464-90.442137h552.825972c49.749536 0 90.220535 40.475103 90.220535 90.224639 0.004104 49.967034-40.470999 90.438033-90.220535 90.438033zM250.918555 894.330294a28.701498 28.701498 0 0 0-28.668668 28.668668c0 16.020968 12.861094 28.882062 28.668668 28.882062h552.825972a28.697394 28.697394 0 0 0 28.664564-28.664564c0-16.025071-12.861094-28.886166-28.664564-28.886166H250.918555z" fill="#6E6E96" p-id="50857"></path></svg>